<svg xmlns="http://www.w3.org/2000/svg" height="24px" viewBox="0 0 24 24" width="24px" fill="#CCCCCC"><path d="m 10,1.7505887 c -4.5536744,0 -8.2494113,3.6957365 -8.2494113,8.2494113 0,4.553675 3.6957368,8.249411 8.2494113,8.249411 4.553674,0 8.249411,-3.695736 8.249411,-8.24941 C 18.249411,5.4463252 14.553674,1.7505887 10,1.7505887 Z M 10.824941,15.774588 H 9.1750593 V 14.124705 H 10.824941 Z M 12.532569,9.3812943 11.790122,10.14024 c -0.593957,0.602207 -0.965181,1.097171 -0.965181,2.334583 H 9.1750593 v -0.41247 c 0,-0.907436 0.371224,-1.732377 0.9651807,-2.3345828 l 1.022927,-1.039426 c 0.305228,-0.296979 0.486716,-0.7094496 0.486716,-1.1631672 0,-0.9074354 -0.742448,-1.6498824 -1.649883,-1.6498824 -0.9074347,0 -1.6498817,0.742447 -1.6498817,1.6498824 H 6.7002352 c 0,-1.82312 1.476645,-3.2997648 3.2997648,-3.2997648 1.823119,0 3.299764,1.4766448 3.299764,3.2997648 0,0.7259482 -0.296979,1.3859012 -0.767195,1.8561173 z"/></svg>
