<?xml version="1.0" encoding="UTF-8" standalone="no"?>
<svg
   xmlns:dc="http://purl.org/dc/elements/1.1/"
   xmlns:cc="http://creativecommons.org/ns#"
   xmlns:rdf="http://www.w3.org/1999/02/22-rdf-syntax-ns#"
   xmlns:svg="http://www.w3.org/2000/svg"
   xmlns="http://www.w3.org/2000/svg"
   xmlns:sodipodi="http://sodipodi.sourceforge.net/DTD/sodipodi-0.dtd"
   xmlns:inkscape="http://www.inkscape.org/namespaces/inkscape"
   height="20"
   viewBox="0 0 20 20"
   width="20"
   fill="#ffffff"
   version="1.1"
   id="svg6"
   sodipodi:docname="help.svg"
   inkscape:version="1.0.1 (3bc2e813f5, 2020-09-07)">
  <metadata
     id="metadata12">
    <rdf:RDF>
      <cc:Work
         rdf:about="">
        <dc:format>image/svg+xml</dc:format>
        <dc:type
           rdf:resource="http://purl.org/dc/dcmitype/StillImage" />
        <dc:title></dc:title>
      </cc:Work>
    </rdf:RDF>
  </metadata>
  <defs
     id="defs10" />
  <sodipodi:namedview
     pagecolor="#ffffff"
     bordercolor="#666666"
     borderopacity="1"
     objecttolerance="10"
     gridtolerance="10"
     guidetolerance="10"
     inkscape:pageopacity="0"
     inkscape:pageshadow="2"
     inkscape:window-width="1920"
     inkscape:window-height="1017"
     id="namedview8"
     showgrid="false"
     inkscape:zoom="17.708333"
     inkscape:cx="5.5749648"
     inkscape:cy="14.024208"
     inkscape:window-x="-8"
     inkscape:window-y="-8"
     inkscape:window-maximized="1"
     inkscape:current-layer="svg6"
     inkscape:document-rotation="0" />
  <path
     d="M 0,0 H 24 V 24 H 0 Z"
     fill="none"
     id="path2" />
  <path
     d="m 10,1.7505887 c -4.5536744,0 -8.2494113,3.6957365 -8.2494113,8.2494113 0,4.553675 3.6957368,8.249411 8.2494113,8.249411 4.553674,0 8.249411,-3.695736 8.249411,-8.24941 C 18.249411,5.4463252 14.553674,1.7505887 10,1.7505887 Z M 10.824941,15.774588 H 9.1750593 V 14.124705 H 10.824941 Z M 12.532569,9.3812943 11.790122,10.14024 c -0.593957,0.602207 -0.965181,1.097171 -0.965181,2.334583 H 9.1750593 v -0.41247 c 0,-0.907436 0.371224,-1.732377 0.9651807,-2.3345828 l 1.022927,-1.039426 c 0.305228,-0.296979 0.486716,-0.7094496 0.486716,-1.1631672 0,-0.9074354 -0.742448,-1.6498824 -1.649883,-1.6498824 -0.9074347,0 -1.6498817,0.742447 -1.6498817,1.6498824 H 6.7002352 c 0,-1.82312 1.476645,-3.2997648 3.2997648,-3.2997648 1.823119,0 3.299764,1.4766448 3.299764,3.2997648 0,0.7259482 -0.296979,1.3859012 -0.767195,1.8561173 z"
     id="path4"
     style="fill:#ffffff;fill-opacity:1;stroke-width:0.824941" />
</svg>
