<?xml version="1.0" encoding="UTF-8" standalone="no"?>
<svg
   xmlns:dc="http://purl.org/dc/elements/1.1/"
   xmlns:cc="http://creativecommons.org/ns#"
   xmlns:rdf="http://www.w3.org/1999/02/22-rdf-syntax-ns#"
   xmlns:svg="http://www.w3.org/2000/svg"
   xmlns="http://www.w3.org/2000/svg"
   xmlns:sodipodi="http://sodipodi.sourceforge.net/DTD/sodipodi-0.dtd"
   xmlns:inkscape="http://www.inkscape.org/namespaces/inkscape"
   viewBox="0 0 28.57 20"
   preserveAspectRatio="xMidYMid meet"
   focusable="false"
   class="style-scope yt-icon"
   style="display:block"
   version="1.1"
   id="svg27"
   sodipodi:docname="youtube.svg"
   width="28.57"
   height="20"
   inkscape:version="1.0.1 (3bc2e813f5, 2020-09-07)">
  <metadata
     id="metadata33">
    <rdf:RDF>
      <cc:Work
         rdf:about="">
        <dc:format>image/svg+xml</dc:format>
        <dc:type
           rdf:resource="http://purl.org/dc/dcmitype/StillImage" />
        <dc:title></dc:title>
      </cc:Work>
    </rdf:RDF>
  </metadata>
  <defs
     id="defs31" />
  <sodipodi:namedview
     pagecolor="#ffffff"
     bordercolor="#666666"
     borderopacity="1"
     objecttolerance="10"
     gridtolerance="10"
     guidetolerance="10"
     inkscape:pageopacity="0"
     inkscape:pageshadow="2"
     inkscape:window-width="1920"
     inkscape:window-height="1017"
     id="namedview29"
     showgrid="false"
     units="mm"
     inkscape:zoom="22.627417"
     inkscape:cx="12.344976"
     inkscape:cy="5.7015303"
     inkscape:window-x="-8"
     inkscape:window-y="-8"
     inkscape:window-maximized="1"
     inkscape:current-layer="svg27" />
  <path
     id="path2"
     d="m 14.281094,5.0956447e-8 c 0,0 -8.9328694,-0.0016600009564 -11.160035,0.595703099043553 C 1.8934224,0.92496017 0.92299694,1.8930369 0.59374353,3.123047 -0.00126396,5.350227 2.262349e-8,10.000001 2.262349e-8,10.000001 c 0,0 2.8999683651e-4,4.649752 0.59764946737651,6.876952 0.32925341,1.23 1.29536691,2.196191 2.52536341,2.525391 C 5.3501686,19.999744 14.285,20 14.285,20 c 0,0 8.932958,-2.56e-4 11.160034,-0.597656 1.230087,-0.3292 2.19812,-1.295391 2.527317,-2.525391 0.597393,-2.2272 0.597649,-6.876952 0.597649,-6.876952 0,0 -0.0023,-4.649774 -0.599602,-6.876954 C 27.641101,1.8930369 26.673068,0.92496017 25.443081,0.59570315 23.215905,-0.00166265 14.281094,5.0956447e-8 14.281094,5.0956447e-8 Z M 11.427609,5.7148438 18.84745,10.000001 11.427609,14.285156 Z"
     style="fill:#ff0000;fill-opacity:1;stroke-width:0.999995" />
</svg>
